<svg fill="none" height="24" viewBox="0 0 24 24" width="24" xmlns="http://www.w3.org/2000/svg"><g clip-rule="evenodd" fill-rule="evenodd"><path d="m17.3216 13.5145c-.2272-2.2739-3.2491-3.84018-6.7505-3.4976-3.50044.3428-6.15504 2.4641-5.92763 4.7381.22741 2.275 3.24956 3.8412 6.75033 3.4992 3.5013-.3425 6.1548-2.464 5.9278-4.7397z" fill="#fff"/><path d="m18.396 10.7032c-.2979-.0885-.5021-.1484-.346-.5359.3378-.84071.3727-1.56615.0064-2.08367-.6866-.97075-2.5648-.91833-4.7178-.02605 0-.0012-.6759.29282-.5032-.238.3312-1.05378.2813-1.93658-.2341-2.44582-1.1681-1.15687-4.27439.04348-6.93801 2.67914-1.99479 1.9746-3.15316 4.0675-3.15316 5.8768 0 3.461 4.48454 5.5653 8.87177 5.5653 5.7514 0 9.5772-3.3068 9.5772-5.9329 0-1.5866-1.3502-2.4867-2.5631-2.8589zm-7.0022 7.5511c-3.50078.342-6.52293-1.2242-6.75034-3.4992-.22741-2.274 2.42718-4.3954 5.92764-4.7381 3.5014-.34267 6.5233 1.2237 6.7505 3.4976.227 2.2756-2.4265 4.3971-5.9278 4.7397z" fill="#cd201f"/><path d="m11.7022 11.7019c-1.6669-.4255-3.55111.3894-4.27512 1.831-.73739 1.4693-.02448 3.101 1.65977 3.6347 1.74445.5518 3.80065-.2943 4.51555-1.8803.7051-1.5513-.1752-3.1481-1.9002-3.5854zm-1.2729 3.754c-.339.5299-1.06449.7624-1.61104.5175-.53849-.2402-.69757-.8567-.35863-1.3735.33469-.5154 1.03586-.7448 1.57827-.5215.5488.2294.724.8413.3914 1.3775zm1.116-1.4062c-.1224.2056-.3933.3044-.6055.2187-.2086-.0842-.274-.3137-.1555-.516.1221-.201.3823-.299.5905-.2179.2116.0757.2875.3082.1705.5152z" fill="#232323"/><path d="m21.9888 4.3861c-1.3579-1.56956-3.3612-2.16794-5.2099-1.75808h-.0008c-.4278.09546-.7005.53408-.6091.97924.0913.4456.5121.73024.94.63521 1.3153-.29118 2.7385.13469 3.7042 1.24961.9643 1.11481 1.2263 2.63554.8133 3.96841l.0002.00044c-.1345.43437.0932.89867.5102 1.03907.4154.1404.862-.0971.9967-.53006 0-.00087 0-.00239.0003-.00326.58-1.87513.2133-4.01266-1.1451-5.58058zm-4.6232 1.10675c-.3681.08184-.6028.45966-.5239.84379.079.3825.4409.62846.8083.54498v.00077c.4405-.09699.9179.04457 1.2409.41748.3237.37378.4105.88312.2717 1.32981h.0007c-.1154.37291.0803.77405.4385.89512.3582.11954.7424-.08424.8579-.45802.2832-.91354.1063-1.95457-.5562-2.71891-.661-.76435-1.637-1.05466-2.5379-.85502z" fill="#dd880c"/></g></svg>