<svg fill="none" height="24" viewBox="0 0 24 24" width="24" xmlns="http://www.w3.org/2000/svg"><g fill="#000"><path d="m14.9337 4.2052c.6898-.86282 1.1579-2.02134 1.0344-3.2052-1.0098.05021-2.2421.6662-2.9555 1.5297-.6406.73945-1.2075 1.94647-1.0597 3.0807 1.1335.09833 2.266-.56659 2.9808-1.4052z"/><path d="m15.9552 5.83187c-1.6462-.09806-3.0458.93429-3.832.93429-.7866 0-1.9904-.88488-3.29245-.86103-1.69471.02489-3.26721.98309-4.1272 2.50708-1.76886 3.04869-.4668 7.57109 1.25332 10.05409.83533 1.2284 1.84204 2.581 3.16855 2.5324 1.25328-.0492 1.74458-.8115 3.26798-.8115 1.5224 0 1.9649.8115 3.2916.7869 1.3759-.0246 2.236-1.229 3.0713-2.4586.9583-1.4004 1.3506-2.7525 1.3753-2.8267-.0247-.0246-2.653-1.0329-2.6774-4.0563-.0248-2.53154 2.0635-3.73568 2.1618-3.81035-1.1793-1.7442-3.0219-1.94087-3.6608-1.99028z"/></g></svg>