<svg fill="none" height="24" viewBox="0 0 24 24" width="24" xmlns="http://www.w3.org/2000/svg"><path d="m22 12c0-5.52286-4.4771-10.00001-10-10.00001-5.52285 0-10 4.47715-10 10.00001 0 4.9913 3.65686 9.1283 8.4375 9.8785v-6.9879h-2.53906v-2.8906h2.53906v-2.20314c0-2.50625 1.4929-3.89062 3.7771-3.89062 1.0941 0 2.2385.19531 2.2385.19531v2.46094h-1.261c-1.2422 0-1.6296.77084-1.6296 1.56171v1.8758h2.7734l-.4433 2.8906h-2.3301v6.9879c4.7806-.7502 8.4375-4.8872 8.4375-9.8785z" fill="#1877f2"/><path d="m15.8926 14.8906.4433-2.8906h-2.7734v-1.8758c0-.79086.3874-1.5617 1.6296-1.5617h1.261v-2.46094s-1.1444-.19531-2.2385-.19531c-2.2842 0-3.7771 1.38437-3.7771 3.89062v2.20313h-2.53906v2.8906h2.53906v6.9879c.5091.0799 1.0309.1215 1.5625.1215s1.0534-.0416 1.5625-.1215v-6.9879z" fill="#fff"/></svg>